{"asset":{"version":"2.0","generator":"babylon.js glTF exporter for maya 2018 v1.3.1"},"scene":0,"scenes":[{"nodes":[0],"extensions":{}}],"nodes":[{"children":[1,2,14,17],"translation":[0.0,0.0,0.0],"rotation":[0.0,0.0,0.0,1.0],"scale":[1.0,1.0,1.0],"name":"T3_1"},{"mesh":0,"translation":[0.0,0.0,0.0],"rotation":[0.0,0.0,0.0,1.0],"scale":[1.0,1.0,1.0],"name":"xiangzi"},{"children":[3,4,5,6,7,8,9,10,11,12,13],"translation":[0.0,0.0,0.0],"rotation":[0.0,0.0,0.0,1.0],"scale":[1.0,1.0,1.0],"name":"DC_Shell"},{"mesh":1,"translation":[0.0,0.0,0.0],"rotation":[0.0,0.0,0.0,1.0],"scale":[1.0,1.0,1.0],"name":"DC_Shell_Z"},{"mesh":2,"translation":[0.0,0.0,0.0],"rotation":[0.0,0.0,0.0,1.0],"scale":[1.0,1.0,1.0],"name":"DC_Shell_Door_001"},{"mesh":3,"translation":[0.0,0.0,0.0],"rotation":[0.0,0.0,0.0,1.0],"scale":[1.0,1.0,1.0],"name":"DC_Shell_Door_002"},{"mesh":4,"translation":[0.0,0.0,0.0],"rotation":[0.0,0.0,0.0,1.0],"scale":[1.0,1.0,1.0],"name":"DC_Shell_ML_G"},{"mesh":5,"translation":[0.0,0.0,0.0],"rotation":[0.0,0.0,0.0,1.0],"scale":[1.0,1.0,1.0],"name":"DC_Shell_ML_Z_L_001"},{"mesh":6,"translation":[0.0,0.0,0.0],"rotation":[0.0,0.0,0.0,1.0],"scale":[1.0,1.0,1.0],"name":"DC_Shell_ML_Z_R_001"},{"mesh":7,"translation":[0.0,0.0,0.0],"rotation":[0.0,0.0,0.0,1.0],"scale":[1.0,1.0,1.0],"name":"DC_Shell_Z1"},{"mesh":8,"translation":[0.0,0.0,0.0],"rotation":[0.0,0.0,0.0,1.0],"scale":[1.0,1.0,1.0],"name":"DC_Shell_Z2"},{"mesh":9,"translation":[0.0,0.0,0.0],"rotation":[0.0,0.0,0.0,1.0],"scale":[1.0,1.0,1.0],"name":"DC_Shell_Z3"},{"mesh":10,"translation":[0.0,0.0,0.0],"rotation":[0.0,0.0,0.0,1.0],"scale":[1.0,1.0,1.0],"name":"DC_Shell_Door_003"},{"mesh":11,"translation":[0.0,0.0,0.0],"rotation":[0.0,0.0,0.0,1.0],"scale":[1.0,1.0,1.0],"name":"DC_Shell_Door_004"},{"children":[15,16],"translation":[0.0,0.0,0.0],"rotation":[0.0,0.0,0.0,1.0],"scale":[1.0,1.0,1.0],"name":"DC_Pedestal"},{"mesh":12,"translation":[0.0,0.0,0.0],"rotation":[0.0,0.0,0.0,1.0],"scale":[1.0,1.0,1.0],"name":"DC_Pedestal_001"},{"mesh":13,"translation":[0.0,0.0,0.0],"rotation":[0.0,0.0,0.0,1.0],"scale":[1.0,1.0,1.0],"name":"DC_Pedestal_002"},{"children":[18,19,20,21,22,23,24,25,26,27],"translation":[0.0,0.0,0.0],"rotation":[0.0,0.0,0.0,1.0],"scale":[1.0,1.0,1.0],"name":"DC_Move"},{"mesh":14,"translation":[0.0,0.0,0.0],"rotation":[0.0,0.0,0.0,1.0],"scale":[1.0,1.0,1.0],"name":"DC_Move_NO"},{"mesh":15,"translation":[0.0,0.0,0.0],"rotation":[0.0,0.0,0.0,1.0],"scale":[1.0,1.0,1.0],"name":"DC_Move_Z_001"},{"mesh":16,"translation":[0.0,0.0,0.0],"rotation":[0.0,0.0,0.0,1.0],"scale":[1.0,1.0,1.0],"name":"DC_Move_Z_002"},{"mesh":17,"translation":[0.0,0.0,0.0],"rotation":[0.0,0.0,0.0,1.0],"scale":[1.0,1.0,1.0],"name":"DC_Move_Z_C_001"},{"mesh":18,"translation":[0.0,0.0,0.0],"rotation":[0.0,0.0,0.0,1.0],"scale":[1.0,1.0,1.0],"name":"DC_Move_Z_C_002"},{"mesh":19,"translation":[0.0,0.0,0.0],"rotation":[0.0,0.0,0.0,1.0],"scale":[1.0,1.0,1.0],"name":"DC_Move_knife_001"},{"mesh":20,"translation":[0.0,0.0,0.0],"rotation":[0.0,0.0,0.0,1.0],"scale":[1.0,1.0,1.0],"name":"DC_Move_knife_002_r"},{"mesh":21,"translation":[0.0,0.0,0.0],"rotation":[0.0,0.0,0.0,1.0],"scale":[1.0,1.0,1.0],"name":"DC_Move_knife_002_k01"},{"mesh":22,"translation":[0.0,0.0,0.0],"rotation":[0.0,0.0,0.0,1.0],"scale":[1.0,1.0,1.0],"name":"DC_Move_knife_002_k02"},{"mesh":23,"translation":[0.0,0.0,0.0],"rotation":[0.0,0.0,0.0,1.0],"scale":[1.0,1.0,1.0],"name":"DC_Move_knife_002_k03"}],"meshes":[{"primitives":[{"attributes":{"POSITION":1,"NORMAL":2,"TANGENT":3,"TEXCOORD_0":4},"indices":0,"mode":4,"material":0}],"name":"xiangzi"},{"primitives":[{"attributes":{"POSITION":6,"NORMAL":7,"TANGENT":8,"TEXCOORD_0":9},"indices":5,"mode":4,"material":1}],"name":"DC_Shell_Z"},{"primitives":[{"attributes":{"POSITION":11,"NORMAL":12,"TANGENT":13,"TEXCOORD_0":14},"indices":10,"mode":4,"material":2}],"name":"DC_Shell_Door_001"},{"primitives":[{"attributes":{"POSITION":16,"NORMAL":17,"TANGENT":18,"TEXCOORD_0":19},"indices":15,"mode":4,"material":3}],"name":"DC_Shell_Door_002"},{"primitives":[{"attributes":{"POSITION":21,"NORMAL":22,"TANGENT":23,"TEXCOORD_0":24},"indices":20,"mode":4,"material":1}],"name":"DC_Shell_ML_G"},{"primitives":[{"attributes":{"POSITION":26,"NORMAL":27,"TANGENT":28,"TEXCOORD_0":29},"indices":25,"mode":4,"material":1}],"name":"DC_Shell_ML_Z_L_001"},{"primitives":[{"attributes":{"POSITION":31,"NORMAL":32,"TANGENT":33,"TEXCOORD_0":34},"indices":30,"mode":4,"material":1}],"name":"DC_Shell_ML_Z_R_001"},{"primitives":[{"attributes":{"POSITION":36,"NORMAL":37,"TANGENT":38,"TEXCOORD_0":39},"indices":35,"mode":4,"material":1}],"name":"DC_Shell_Z1"},{"primitives":[{"attributes":{"POSITION":41,"NORMAL":42,"TANGENT":43,"TEXCOORD_0":44},"indices":40,"mode":4,"material":1}],"name":"DC_Shell_Z2"},{"primitives":[{"attributes":{"POSITION":46,"NORMAL":47,"TANGENT":48,"TEXCOORD_0":49},"indices":45,"mode":4,"material":1}],"name":"DC_Shell_Z3"},{"primitives":[{"attributes":{"POSITION":51,"NORMAL":52,"TANGENT":53,"TEXCOORD_0":54},"indices":50,"mode":4,"material":4}],"name":"DC_Shell_Door_003"},{"primitives":[{"attributes":{"POSITION":56,"NORMAL":57,"TANGENT":58,"TEXCOORD_0":59},"indices":55,"mode":4,"material":5}],"name":"DC_Shell_Door_004"},{"primitives":[{"attributes":{"POSITION":61,"NORMAL":62,"TANGENT":63,"TEXCOORD_0":64},"indices":60,"mode":4,"material":6}],"name":"DC_Pedestal_001"},{"primitives":[{"attributes":{"POSITION":66,"NORMAL":67,"TANGENT":68,"TEXCOORD_0":69},"indices":65,"mode":4,"material":7}],"name":"DC_Pedestal_002"},{"primitives":[{"attributes":{"POSITION":71,"NORMAL":72,"TANGENT":73,"TEXCOORD_0":74},"indices":70,"mode":4,"material":8}],"name":"DC_Move_NO"},{"primitives":[{"attributes":{"POSITION":76,"NORMAL":77,"TANGENT":78,"TEXCOORD_0":79},"indices":75,"mode":4,"material":8}],"name":"DC_Move_Z_001"},{"primitives":[{"attributes":{"POSITION":81,"NORMAL":82,"TANGENT":83,"TEXCOORD_0":84},"indices":80,"mode":4,"material":8}],"name":"DC_Move_Z_002"},{"primitives":[{"attributes":{"POSITION":86,"NORMAL":87,"TANGENT":88,"TEXCOORD_0":89},"indices":85,"mode":4,"material":8}],"name":"DC_Move_Z_C_001"},{"primitives":[{"attributes":{"POSITION":91,"NORMAL":92,"TANGENT":93,"TEXCOORD_0":94},"indices":90,"mode":4,"material":8}],"name":"DC_Move_Z_C_002"},{"primitives":[{"attributes":{"POSITION":96,"NORMAL":97,"TANGENT":98,"TEXCOORD_0":99},"indices":95,"mode":4,"material":8}],"name":"DC_Move_knife_001"},{"primitives":[{"attributes":{"POSITION":101,"NORMAL":102,"TANGENT":103,"TEXCOORD_0":104},"indices":100,"mode":4,"material":8}],"name":"DC_Move_knife_002_r"},{"primitives":[{"attributes":{"POSITION":106,"NORMAL":107,"TANGENT":108,"TEXCOORD_0":109},"indices":105,"mode":4,"material":8}],"name":"DC_Move_knife_002_k01"},{"primitives":[{"attributes":{"POSITION":111,"NORMAL":112,"TANGENT":113,"TEXCOORD_0":114},"indices":110,"mode":4,"material":8}],"name":"DC_Move_knife_002_k02"},{"primitives":[{"attributes":{"POSITION":116,"NORMAL":117,"TANGENT":118,"TEXCOORD_0":119},"indices":115,"mode":4,"material":8}],"name":"DC_Move_knife_002_k03"}],"accessors":[{"bufferView":0,"componentType":5123,"count":1092,"type":"SCALAR","name":"accessorIndices"},{"bufferView":1,"componentType":5126,"count":1092,"max":[1.65563965,2.67675781,-0.199584961],"min":[1.42633057,1.88232422,-0.6824951],"type":"VEC3","name":"accessorPositions"},{"bufferView":1,"byteOffset":13104,"componentType":5126,"count":1092,"type":"VEC3","name":"accessorNormals"},{"bufferView":2,"componentType":5126,"count":1092,"type":"VEC4","name":"accessorTangents"},{"bufferView":3,"componentType":5126,"count":1092,"type":"VEC2","name":"accessorUVs"},{"bufferView":0,"byteOffset":2184,"componentType":5123,"count":3108,"type":"SCALAR","name":"accessorIndices"},{"bufferView":1,"byteOffset":26208,"componentType":5126,"count":3108,"max":[1.4621582,3.33642578,2.43481445],"min":[-1.10791016,0.179260254,-1.15380859],"type":"VEC3","name":"accessorPositions"},{"bufferView":1,"byteOffset":63504,"componentType":5126,"count":3108,"type":"VEC3","name":"accessorNormals"},{"bufferView":2,"byteOffset":17472,"componentType":5126,"count":3108,"type":"VEC4","name":"accessorTangents"},{"bufferView":3,"byteOffset":8736,"componentType":5126,"count":3108,"type":"VEC2","name":"accessorUVs"},{"bufferView":0,"byteOffset":8400,"componentType":5123,"count":132,"type":"SCALAR","name":"accessorIndices"},{"bufferView":1,"byteOffset":100800,"componentType":5126,"count":132,"max":[1.0942688,3.2175293,1.18203735],"min":[0.5071411,3.15869141,-0.09460449],"type":"VEC3","name":"accessorPositions"},{"bufferView":1,"byteOffset":102384,"componentType":5126,"count":132,"type":"VEC3","name":"accessorNormals"},{"bufferView":2,"byteOffset":67200,"componentType":5126,"count":132,"type":"VEC4","name":"accessorTangents"},{"bufferView":3,"byteOffset":33600,"componentType":5126,"count":132,"type":"VEC2","name":"accessorUVs"},{"bufferView":0,"byteOffset":8664,"componentType":5123,"count":732,"type":"SCALAR","name":"accessorIndices"},{"bufferView":1,"byteOffset":103968,"componentType":5126,"count":732,"max":[1.5213623,3.177002,1.18078613],"min":[0.353851318,1.022583,-0.225585938],"type":"VEC3","name":"accessorPositions"},{"bufferView":1,"byteOffset":112752,"componentType":5126,"count":732,"type":"VEC3","name":"accessorNormals"},{"bufferView":2,"byteOffset":69312,"componentType":5126,"count":732,"type":"VEC4","name":"accessorTangents"},{"bufferView":3,"byteOffset":34656,"componentType":5126,"count":732,"type":"VEC2","name":"accessorUVs"},{"bufferView":0,"byteOffset":10128,"componentType":5123,"count":1080,"type":"SCALAR","name":"accessorIndices"},{"bufferView":1,"byteOffset":121536,"componentType":5126,"count":1080,"max":[0.51297,2.87451172,-0.159667969],"min":[-0.07543945,1.190979,-1.10351563],"type":"VEC3","name":"accessorPositions"},{"bufferView":1,"byteOffset":134496,"componentType":5126,"count":1080,"type":"VEC3","name":"accessorNormals"},{"bufferView":2,"byteOffset":81024,"componentType":5126,"count":1080,"type":"VEC4","name":"accessorTangents"},{"bufferView":3,"byteOffset":40512,"componentType":5126,"count":1080,"type":"VEC2","name":"accessorUVs"},{"bufferView":0,"byteOffset":12288,"componentType":5123,"count":378,"type":"SCALAR","name":"accessorIndices"},{"bufferView":1,"byteOffset":147456,"componentType":5126,"count":378,"max":[0.47668457,2.83374023,-0.207519531],"min":[0.195739746,1.192627,-0.6534424],"type":"VEC3","name":"accessorPositions"},{"bufferView":1,"byteOffset":151992,"componentType":5126,"count":378,"type":"VEC3","name":"accessorNormals"},{"bufferView":2,"byteOffset":98304,"componentType":5126,"count":378,"type":"VEC4","name":"accessorTangents"},{"bufferView":3,"byteOffset":49152,"componentType":5126,"count":378,"type":"VEC2","name":"accessorUVs"},{"bufferView":0,"byteOffset":13044,"componentType":5123,"count":378,"type":"SCALAR","name":"accessorIndices"},{"bufferView":1,"byteOffset":156528,"componentType":5126,"count":378,"max":[0.47668457,2.83374023,-0.657348633],"min":[0.195739746,1.192627,-1.08544922],"type":"VEC3","name":"accessorPositions"},{"bufferView":1,"byteOffset":161064,"componentType":5126,"count":378,"type":"VEC3","name":"accessorNormals"},{"bufferView":2,"byteOffset":104352,"componentType":5126,"count":378,"type":"VEC4","name":"accessorTangents"},{"bufferView":3,"byteOffset":52176,"componentType":5126,"count":378,"type":"VEC2","name":"accessorUVs"},{"bufferView":0,"byteOffset":13800,"componentType":5123,"count":486,"type":"SCALAR","name":"accessorIndices"},{"bufferView":1,"byteOffset":165600,"componentType":5126,"count":486,"max":[1.11502075,3.3046875,2.368042],"min":[0.07879639,0.7593384,-0.7388916],"type":"VEC3","name":"accessorPositions"},{"bufferView":1,"byteOffset":171432,"componentType":5126,"count":486,"type":"VEC3","name":"accessorNormals"},{"bufferView":2,"byteOffset":110400,"componentType":5126,"count":486,"type":"VEC4","name":"accessorTangents"},{"bufferView":3,"byteOffset":55200,"componentType":5126,"count":486,"type":"VEC2","name":"accessorUVs"},{"bufferView":0,"byteOffset":14772,"componentType":5123,"count":1653,"type":"SCALAR","name":"accessorIndices"},{"bufferView":1,"byteOffset":177264,"componentType":5126,"count":1653,"max":[1.37036133,3.33642578,2.43188477],"min":[-0.970947266,0.328468323,-1.14135742],"type":"VEC3","name":"accessorPositions"},{"bufferView":1,"byteOffset":197100,"componentType":5126,"count":1653,"type":"VEC3","name":"accessorNormals"},{"bufferView":2,"byteOffset":118176,"componentType":5126,"count":1653,"type":"VEC4","name":"accessorTangents"},{"bufferView":3,"byteOffset":59088,"componentType":5126,"count":1653,"type":"VEC2","name":"accessorUVs"},{"bufferView":0,"byteOffset":18080,"componentType":5123,"count":42,"type":"SCALAR","name":"accessorIndices"},{"bufferView":1,"byteOffset":216936,"componentType":5126,"count":42,"max":[1.4621582,3.177002,-0.113464355],"min":[1.4262085,1.022583,-0.6010742],"type":"VEC3","name":"accessorPositions"},{"bufferView":1,"byteOffset":217440,"componentType":5126,"count":42,"type":"VEC3","name":"accessorNormals"},{"bufferView":2,"byteOffset":144624,"componentType":5126,"count":42,"type":"VEC4","name":"accessorTangents"},{"bufferView":3,"byteOffset":72312,"componentType":5126,"count":42,"type":"VEC2","name":"accessorUVs"},{"bufferView":0,"byteOffset":18164,"componentType":5123,"count":588,"type":"SCALAR","name":"accessorIndices"},{"bufferView":1,"byteOffset":217944,"componentType":5126,"count":588,"max":[1.12460327,3.34521484,1.18203735],"min":[0.47644043,3.2175293,-0.09460449],"type":"VEC3","name":"accessorPositions"},{"bufferView":1,"byteOffset":225000,"componentType":5126,"count":588,"type":"VEC3","name":"accessorNormals"},{"bufferView":2,"byteOffset":145296,"componentType":5126,"count":588,"type":"VEC4","name":"accessorTangents"},{"bufferView":3,"byteOffset":72648,"componentType":5126,"count":588,"type":"VEC2","name":"accessorUVs"},{"bufferView":0,"byteOffset":19340,"componentType":5123,"count":156,"type":"SCALAR","name":"accessorIndices"},{"bufferView":1,"byteOffset":232056,"componentType":5126,"count":156,"max":[1.56329346,3.136963,0.009338379],"min":[1.517395,1.07452393,-0.051940918],"type":"VEC3","name":"accessorPositions"},{"bufferView":1,"byteOffset":233928,"componentType":5126,"count":156,"type":"VEC3","name":"accessorNormals"},{"bufferView":2,"byteOffset":154704,"componentType":5126,"count":156,"type":"VEC4","name":"accessorTangents"},{"bufferView":3,"byteOffset":77352,"componentType":5126,"count":156,"type":"VEC2","name":"accessorUVs"},{"bufferView":0,"byteOffset":19652,"componentType":5123,"count":7416,"type":"SCALAR","name":"accessorIndices"},{"bufferView":1,"byteOffset":235800,"componentType":5126,"count":7416,"max":[1.28607178,1.30187988,1.68664551],"min":[-0.8557129,-0.006652832,-1.07177734],"type":"VEC3","name":"accessorPositions"},{"bufferView":1,"byteOffset":324792,"componentType":5126,"count":7416,"type":"VEC3","name":"accessorNormals"},{"bufferView":2,"byteOffset":157200,"componentType":5126,"count":7416,"type":"VEC4","name":"accessorTangents"},{"bufferView":3,"byteOffset":78600,"componentType":5126,"count":7416,"type":"VEC2","name":"accessorUVs"},{"bufferView":0,"byteOffset":34484,"componentType":5123,"count":1671,"type":"SCALAR","name":"accessorIndices"},{"bufferView":1,"byteOffset":413784,"componentType":5126,"count":1671,"max":[1.46795654,1.85192871,1.23397827],"min":[-0.150024414,0.0,-2.87451172],"type":"VEC3","name":"accessorPositions"},{"bufferView":1,"byteOffset":433836,"componentType":5126,"count":1671,"type":"VEC3","name":"accessorNormals"},{"bufferView":2,"byteOffset":275856,"componentType":5126,"count":1671,"type":"VEC4","name":"accessorTangents"},{"bufferView":3,"byteOffset":137928,"componentType":5126,"count":1671,"type":"VEC2","name":"accessorUVs"},{"bufferView":0,"byteOffset":37828,"componentType":5123,"count":2022,"type":"SCALAR","name":"accessorIndices"},{"bufferView":1,"byteOffset":453888,"componentType":5126,"count":2022,"max":[1.12460327,1.99389648,2.17822266],"min":[-0.313232422,0.5367279,-0.9383545],"type":"VEC3","name":"accessorPositions"},{"bufferView":1,"byteOffset":478152,"componentType":5126,"count":2022,"type":"VEC3","name":"accessorNormals"},{"bufferView":2,"byteOffset":302592,"componentType":5126,"count":2022,"type":"VEC4","name":"accessorTangents"},{"bufferView":3,"byteOffset":151296,"componentType":5126,"count":2022,"type":"VEC2","name":"accessorUVs"},{"bufferView":0,"byteOffset":41872,"componentType":5123,"count":2235,"type":"SCALAR","name":"accessorIndices"},{"bufferView":1,"byteOffset":502416,"componentType":5126,"count":2235,"max":[0.508911133,2.31713867,1.55267334],"min":[-0.512207031,1.201355,-0.256958],"type":"VEC3","name":"accessorPositions"},{"bufferView":1,"byteOffset":529236,"componentType":5126,"count":2235,"type":"VEC3","name":"accessorNormals"},{"bufferView":2,"byteOffset":334944,"componentType":5126,"count":2235,"type":"VEC4","name":"accessorTangents"},{"bufferView":3,"byteOffset":167472,"componentType":5126,"count":2235,"type":"VEC2","name":"accessorUVs"},{"bufferView":0,"byteOffset":46344,"componentType":5123,"count":1356,"type":"SCALAR","name":"accessorIndices"},{"bufferView":1,"byteOffset":556056,"componentType":5126,"count":1356,"max":[0.526412964,2.94384766,0.572219849],"min":[-0.9251709,1.19128418,-0.161193848],"type":"VEC3","name":"accessorPositions"},{"bufferView":1,"byteOffset":572328,"componentType":5126,"count":1356,"type":"VEC3","name":"accessorNormals"},{"bufferView":2,"byteOffset":370704,"componentType":5126,"count":1356,"type":"VEC4","name":"accessorTangents"},{"bufferView":3,"byteOffset":185352,"componentType":5126,"count":1356,"type":"VEC2","name":"accessorUVs"},{"bufferView":0,"byteOffset":49056,"componentType":5123,"count":372,"type":"SCALAR","name":"accessorIndices"},{"bufferView":1,"byteOffset":588600,"componentType":5126,"count":372,"max":[0.7266998,2.97827148,0.596756],"min":[-0.531494141,1.61865234,-0.153259277],"type":"VEC3","name":"accessorPositions"},{"bufferView":1,"byteOffset":593064,"componentType":5126,"count":372,"type":"VEC3","name":"accessorNormals"},{"bufferView":2,"byteOffset":392400,"componentType":5126,"count":372,"type":"VEC4","name":"accessorTangents"},{"bufferView":3,"byteOffset":196200,"componentType":5126,"count":372,"type":"VEC2","name":"accessorUVs"},{"bufferView":0,"byteOffset":49800,"componentType":5123,"count":1338,"type":"SCALAR","name":"accessorIndices"},{"bufferView":1,"byteOffset":597528,"componentType":5126,"count":1338,"max":[0.6264343,2.57763672,0.626297],"min":[-0.412963867,1.63330078,-0.151672363],"type":"VEC3","name":"accessorPositions"},{"bufferView":1,"byteOffset":613584,"componentType":5126,"count":1338,"type":"VEC3","name":"accessorNormals"},{"bufferView":2,"byteOffset":398352,"componentType":5126,"count":1338,"type":"VEC4","name":"accessorTangents"},{"bufferView":3,"byteOffset":199176,"componentType":5126,"count":1338,"type":"VEC2","name":"accessorUVs"},{"bufferView":0,"byteOffset":52476,"componentType":5123,"count":432,"type":"SCALAR","name":"accessorIndices"},{"bufferView":1,"byteOffset":629640,"componentType":5126,"count":432,"max":[0.695556641,2.307495,0.7662468],"min":[0.179321289,1.79040527,0.6221466],"type":"VEC3","name":"accessorPositions"},{"bufferView":1,"byteOffset":634824,"componentType":5126,"count":432,"type":"VEC3","name":"accessorNormals"},{"bufferView":2,"byteOffset":419760,"componentType":5126,"count":432,"type":"VEC4","name":"accessorTangents"},{"bufferView":3,"byteOffset":209880,"componentType":5126,"count":432,"type":"VEC2","name":"accessorUVs"},{"bufferView":0,"byteOffset":53340,"componentType":5123,"count":288,"type":"SCALAR","name":"accessorIndices"},{"bufferView":1,"byteOffset":640008,"componentType":5126,"count":288,"max":[0.8653641,1.85986328,0.9621887],"min":[0.598938,1.59338379,0.8281479],"type":"VEC3","name":"accessorPositions"},{"bufferView":1,"byteOffset":643464,"componentType":5126,"count":288,"type":"VEC3","name":"accessorNormals"},{"bufferView":2,"byteOffset":426672,"componentType":5126,"count":288,"type":"VEC4","name":"accessorTangents"},{"bufferView":3,"byteOffset":213336,"componentType":5126,"count":288,"type":"VEC2","name":"accessorUVs"},{"bufferView":0,"byteOffset":53916,"componentType":5123,"count":36,"type":"SCALAR","name":"accessorIndices"},{"bufferView":1,"byteOffset":646920,"componentType":5126,"count":36,"max":[0.7389755,1.734375,0.8281479],"min":[0.626159668,1.62255859,0.777084351],"type":"VEC3","name":"accessorPositions"},{"bufferView":1,"byteOffset":647352,"componentType":5126,"count":36,"type":"VEC3","name":"accessorNormals"},{"bufferView":2,"byteOffset":431280,"componentType":5126,"count":36,"type":"VEC4","name":"accessorTangents"},{"bufferView":3,"byteOffset":215640,"componentType":5126,"count":36,"type":"VEC2","name":"accessorUVs"},{"bufferView":0,"byteOffset":53988,"componentType":5123,"count":36,"type":"SCALAR","name":"accessorIndices"},{"bufferView":1,"byteOffset":647784,"componentType":5126,"count":36,"max":[0.855781555,1.74865723,0.8281479],"min":[0.7414322,1.666748,0.777084351],"type":"VEC3","name":"accessorPositions"},{"bufferView":1,"byteOffset":648216,"componentType":5126,"count":36,"type":"VEC3","name":"accessorNormals"},{"bufferView":2,"byteOffset":431856,"componentType":5126,"count":36,"type":"VEC4","name":"accessorTangents"},{"bufferView":3,"byteOffset":215928,"componentType":5126,"count":36,"type":"VEC2","name":"accessorUVs"},{"bufferView":0,"byteOffset":54060,"componentType":5123,"count":36,"type":"SCALAR","name":"accessorIndices"},{"bufferView":1,"byteOffset":648648,"componentType":5126,"count":36,"max":[0.754922867,1.8503418,0.8281479],"min":[0.675598145,1.73681641,0.777084351],"type":"VEC3","name":"accessorPositions"},{"bufferView":1,"byteOffset":649080,"componentType":5126,"count":36,"type":"VEC3","name":"accessorNormals"},{"bufferView":2,"byteOffset":432432,"componentType":5126,"count":36,"type":"VEC4","name":"accessorTangents"},{"bufferView":3,"byteOffset":216216,"componentType":5126,"count":36,"type":"VEC2","name":"accessorUVs"}],"bufferViews":[{"buffer":0,"byteLength":54132,"name":"bufferViewScalar"},{"buffer":0,"byteOffset":54132,"byteLength":649512,"byteStride":12,"name":"bufferViewFloatVec3"},{"buffer":0,"byteOffset":703644,"byteLength":433008,"byteStride":16,"name":"bufferViewFloatVec4"},{"buffer":0,"byteOffset":1136652,"byteLength":216504,"byteStride":8,"name":"bufferViewFloatVec2"}],"buffers":[{"uri":"T3_1.bin","byteLength":1353156}],"materials":[{"pbrMetallicRoughness":{"baseColorFactor":[0.4,0.4,0.4,1.0],"metallicFactor":0.0,"roughnessFactor":0.450053632},"emissiveFactor":[0.0,0.0,0.0],"alphaMode":"OPAQUE","name":"lambert5"},{"pbrMetallicRoughness":{"baseColorFactor":[0.5882353,0.2627451,0.2627451,1.0],"metallicFactor":0.0,"roughnessFactor":0.450053632},"emissiveFactor":[0.3460208,0.06903499,0.06903499],"alphaMode":"OPAQUE","name":"FBXASC0481FBXASC032FBXASC045FBXASC032Default1"},{"pbrMetallicRoughness":{"baseColorFactor":[0.5882353,0.5882353,0.5882353,1.0],"metallicFactor":0.0,"roughnessFactor":0.450053632},"emissiveFactor":[0.3460208,0.3460208,0.3460208],"alphaMode":"OPAQUE","name":"FBXASC0483FBXASC032FBXASC045FBXASC032Default"},{"pbrMetallicRoughness":{"baseColorFactor":[0.5882353,0.5882353,0.5882353,1.0],"metallicFactor":0.0,"roughnessFactor":0.450053632},"emissiveFactor":[0.3460208,0.3460208,0.3460208],"alphaMode":"OPAQUE","name":"FBXASC0487FBXASC032FBXASC045FBXASC032Default"},{"pbrMetallicRoughness":{"baseColorFactor":[0.5882353,0.5882353,0.5882353,1.0],"metallicFactor":0.0,"roughnessFactor":0.450053632},"emissiveFactor":[0.3460208,0.3460208,0.3460208],"alphaMode":"OPAQUE","name":"FBXASC0482FBXASC032FBXASC045FBXASC032Default"},{"pbrMetallicRoughness":{"baseColorFactor":[0.5882353,0.5882353,0.5882353,1.0],"metallicFactor":0.0,"roughnessFactor":0.450053632},"emissiveFactor":[0.3460208,0.3460208,0.3460208],"alphaMode":"OPAQUE","name":"FBXASC0488FBXASC032FBXASC045FBXASC032Default"},{"pbrMetallicRoughness":{"baseColorFactor":[0.5,0.5,0.5,1.0],"metallicFactor":0.0,"roughnessFactor":0.450053632},"emissiveFactor":[0.0,0.0,0.0],"alphaMode":"OPAQUE","name":"DC_Pedestal01"},{"pbrMetallicRoughness":{"baseColorFactor":[0.5,0.5,0.5,1.0],"metallicFactor":0.0,"roughnessFactor":0.450053632},"emissiveFactor":[0.0,0.0,0.0],"alphaMode":"OPAQUE","name":"DC_Pedestal02"},{"pbrMetallicRoughness":{"baseColorFactor":[0.4,0.4,0.4,1.0],"metallicFactor":0.0,"roughnessFactor":0.450053632},"emissiveFactor":[0.0,0.0,0.0],"alphaMode":"OPAQUE","name":"lambert6"}]}